<mxfile host="65bd71144e">
    <diagram id="UhXqhaLdDnmHX48v7SjW" name="Page-1">
        <mxGraphModel dx="1670" dy="5496" grid="1" gridSize="10" guides="1" tooltips="1" connect="1" arrows="1" fold="1" page="1" pageScale="1" pageWidth="3300" pageHeight="4681" background="#4D4D4D" math="0" shadow="0">
            <root>
                <mxCell id="0"/>
                <mxCell id="1" parent="0"/>
                <mxCell id="2" value="BRISTOL" style="swimlane;fontStyle=0;childLayout=stackLayout;horizontal=1;startSize=26;horizontalStack=0;resizeParent=1;resizeParentMax=0;resizeLast=0;collapsible=1;marginBottom=0;fillColor=#66B2FF;swimlaneFillColor=#808080;fontColor=#FFFFFF;" parent="1" vertex="1">
                    <mxGeometry x="200" y="220" width="140" height="104" as="geometry"/>
                </mxCell>
                <mxCell id="3" value="title" style="text;strokeColor=none;fillColor=none;align=left;verticalAlign=top;spacingLeft=4;spacingRight=4;overflow=hidden;rotatable=0;points=[[0,0.5],[1,0.5]];portConstraint=eastwest;fontColor=#FFFFFF;" parent="2" vertex="1">
                    <mxGeometry y="26" width="140" height="26" as="geometry"/>
                </mxCell>
                <mxCell id="4" value="content" style="text;strokeColor=none;fillColor=none;align=left;verticalAlign=top;spacingLeft=4;spacingRight=4;overflow=hidden;rotatable=0;points=[[0,0.5],[1,0.5]];portConstraint=eastwest;fontColor=#FFFFFF;" parent="2" vertex="1">
                    <mxGeometry y="52" width="140" height="26" as="geometry"/>
                </mxCell>
                <mxCell id="45" value="status" style="text;strokeColor=none;fillColor=none;align=left;verticalAlign=top;spacingLeft=4;spacingRight=4;overflow=hidden;rotatable=0;points=[[0,0.5],[1,0.5]];portConstraint=eastwest;fontColor=#FFFFFF;" parent="2" vertex="1">
                    <mxGeometry y="78" width="140" height="26" as="geometry"/>
                </mxCell>
                <mxCell id="6" value="PASSWORD" style="swimlane;fontStyle=0;childLayout=stackLayout;horizontal=1;startSize=26;horizontalStack=0;resizeParent=1;resizeParentMax=0;resizeLast=0;collapsible=1;marginBottom=0;fillColor=#66B2FF;swimlaneFillColor=#808080;fontColor=#FFFFFF;" parent="1" vertex="1">
                    <mxGeometry x="660" y="470" width="140" height="52" as="geometry"/>
                </mxCell>
                <mxCell id="7" value="hash" style="text;strokeColor=none;fillColor=none;align=left;verticalAlign=top;spacingLeft=4;spacingRight=4;overflow=hidden;rotatable=0;points=[[0,0.5],[1,0.5]];portConstraint=eastwest;fontColor=#FFFFFF;" parent="6" vertex="1">
                    <mxGeometry y="26" width="140" height="26" as="geometry"/>
                </mxCell>
                <mxCell id="10" value="USER" style="swimlane;fontStyle=0;childLayout=stackLayout;horizontal=1;startSize=26;horizontalStack=0;resizeParent=1;resizeParentMax=0;resizeLast=0;collapsible=1;marginBottom=0;fillColor=#66B2FF;swimlaneFillColor=#808080;fontColor=#FFFFFF;" parent="1" vertex="1">
                    <mxGeometry x="660" y="220" width="140" height="130" as="geometry"/>
                </mxCell>
                <mxCell id="11" value="first_name" style="text;strokeColor=none;fillColor=none;align=left;verticalAlign=top;spacingLeft=4;spacingRight=4;overflow=hidden;rotatable=0;points=[[0,0.5],[1,0.5]];portConstraint=eastwest;fontColor=#FFFFFF;" parent="10" vertex="1">
                    <mxGeometry y="26" width="140" height="26" as="geometry"/>
                </mxCell>
                <mxCell id="12" value="last_name" style="text;strokeColor=none;fillColor=none;align=left;verticalAlign=top;spacingLeft=4;spacingRight=4;overflow=hidden;rotatable=0;points=[[0,0.5],[1,0.5]];portConstraint=eastwest;fontColor=#FFFFFF;" parent="10" vertex="1">
                    <mxGeometry y="52" width="140" height="26" as="geometry"/>
                </mxCell>
                <mxCell id="13" value="email" style="text;strokeColor=none;fillColor=none;align=left;verticalAlign=top;spacingLeft=4;spacingRight=4;overflow=hidden;rotatable=0;points=[[0,0.5],[1,0.5]];portConstraint=eastwest;fontColor=#FFFFFF;" parent="10" vertex="1">
                    <mxGeometry y="78" width="140" height="26" as="geometry"/>
                </mxCell>
                <mxCell id="86" value="picture_url" style="text;strokeColor=none;fillColor=none;align=left;verticalAlign=top;spacingLeft=4;spacingRight=4;overflow=hidden;rotatable=0;points=[[0,0.5],[1,0.5]];portConstraint=eastwest;fontColor=#FFFFFF;" vertex="1" parent="10">
                    <mxGeometry y="104" width="140" height="26" as="geometry"/>
                </mxCell>
                <mxCell id="14" value="" style="endArrow=none;html=1;fontColor=#FFFFFF;" parent="1" source="33" target="10" edge="1">
                    <mxGeometry width="50" height="50" relative="1" as="geometry">
                        <mxPoint x="690" y="400" as="sourcePoint"/>
                        <mxPoint x="740" y="350" as="targetPoint"/>
                    </mxGeometry>
                </mxCell>
                <mxCell id="15" value="" style="endArrow=none;html=1;fontColor=#FFFFFF;" parent="1" source="25" target="2" edge="1">
                    <mxGeometry width="50" height="50" relative="1" as="geometry">
                        <mxPoint x="500" y="437" as="sourcePoint"/>
                        <mxPoint x="500" y="335" as="targetPoint"/>
                    </mxGeometry>
                </mxCell>
                <mxCell id="16" value="GROUP" style="swimlane;fontStyle=0;childLayout=stackLayout;horizontal=1;startSize=26;horizontalStack=0;resizeParent=1;resizeParentMax=0;resizeLast=0;collapsible=1;marginBottom=0;fillColor=#66B2FF;swimlaneFillColor=#808080;fontColor=#FFFFFF;" parent="1" vertex="1">
                    <mxGeometry x="660" y="-100" width="140" height="52" as="geometry"/>
                </mxCell>
                <mxCell id="17" value="group_name" style="text;strokeColor=none;fillColor=none;align=left;verticalAlign=top;spacingLeft=4;spacingRight=4;overflow=hidden;rotatable=0;points=[[0,0.5],[1,0.5]];portConstraint=eastwest;fontColor=#FFFFFF;" parent="16" vertex="1">
                    <mxGeometry y="26" width="140" height="26" as="geometry"/>
                </mxCell>
                <mxCell id="20" value="" style="endArrow=none;html=1;fontColor=#FFFFFF;" parent="1" source="28" target="16" edge="1">
                    <mxGeometry width="50" height="50" relative="1" as="geometry">
                        <mxPoint x="820" y="230" as="sourcePoint"/>
                        <mxPoint x="704.5544554455446" y="2" as="targetPoint"/>
                    </mxGeometry>
                </mxCell>
                <mxCell id="25" value="CREATED BY" style="swimlane;fillColor=#60a917;strokeColor=#2D7600;rounded=1;swimlaneLine=0;swimlaneFillColor=#808080;fontColor=#FFFFFF;" parent="1" vertex="1">
                    <mxGeometry x="450" y="230" width="100" height="34" as="geometry"/>
                </mxCell>
                <mxCell id="26" value="" style="endArrow=none;html=1;fontColor=#FFFFFF;" parent="1" source="10" target="25" edge="1">
                    <mxGeometry width="50" height="50" relative="1" as="geometry">
                        <mxPoint x="410" y="281.36363636363626" as="sourcePoint"/>
                        <mxPoint x="339.9999999999998" y="281.68181818181824" as="targetPoint"/>
                    </mxGeometry>
                </mxCell>
                <mxCell id="28" value="PART OF" style="swimlane;fillColor=#60a917;strokeColor=#2D7600;rounded=1;swimlaneLine=0;swimlaneFillColor=#808080;fontColor=#FFFFFF;" parent="1" vertex="1">
                    <mxGeometry x="630" y="60" width="100" height="34" as="geometry"/>
                </mxCell>
                <mxCell id="29" value="" style="endArrow=none;html=1;fontColor=#FFFFFF;" parent="1" source="28" target="10" edge="1">
                    <mxGeometry width="50" height="50" relative="1" as="geometry">
                        <mxPoint x="730.0000000000002" y="140" as="sourcePoint"/>
                        <mxPoint x="730.0000000000002" y="92" as="targetPoint"/>
                    </mxGeometry>
                </mxCell>
                <mxCell id="33" value="PROTECTED BY" style="swimlane;fillColor=#60a917;strokeColor=#2D7600;rounded=1;swimlaneLine=0;swimlaneFillColor=#808080;fontColor=#FFFFFF;" parent="1" vertex="1">
                    <mxGeometry x="670" y="393" width="120" height="34" as="geometry"/>
                </mxCell>
                <mxCell id="34" value="" style="endArrow=none;html=1;fontColor=#FFFFFF;" parent="1" source="33" target="6" edge="1">
                    <mxGeometry width="50" height="50" relative="1" as="geometry">
                        <mxPoint x="740.0000000000002" y="403.0000000000001" as="sourcePoint"/>
                        <mxPoint x="740.0000000000002" y="357" as="targetPoint"/>
                    </mxGeometry>
                </mxCell>
                <mxCell id="35" value="CONTAINED IN" style="swimlane;fillColor=#60a917;strokeColor=#2D7600;rounded=1;swimlaneLine=0;swimlaneFillColor=#808080;fontColor=#FFFFFF;" parent="1" vertex="1">
                    <mxGeometry x="210" y="60" width="120" height="34" as="geometry"/>
                </mxCell>
                <mxCell id="36" value="" style="endArrow=none;html=1;fontColor=#FFFFFF;" parent="1" source="35" target="2" edge="1">
                    <mxGeometry width="50" height="50" relative="1" as="geometry">
                        <mxPoint x="600.0000000000002" y="282.0000000000001" as="sourcePoint"/>
                        <mxPoint x="349.9999999999998" y="282.0000000000001" as="targetPoint"/>
                    </mxGeometry>
                </mxCell>
                <mxCell id="37" value="" style="endArrow=none;html=1;fontColor=#FFFFFF;" parent="1" source="61" target="35" edge="1">
                    <mxGeometry width="50" height="50" relative="1" as="geometry">
                        <mxPoint x="430" y="5.611111111111086" as="sourcePoint"/>
                        <mxPoint x="369.9999999999998" y="15.944444444444457" as="targetPoint"/>
                    </mxGeometry>
                </mxCell>
                <mxCell id="42" value="CREATED BY" style="swimlane;fillColor=#60a917;strokeColor=#2D7600;rounded=1;swimlaneLine=0;swimlaneFillColor=#808080;fontColor=#FFFFFF;" parent="1" vertex="1">
                    <mxGeometry x="740" y="60" width="100" height="34" as="geometry"/>
                </mxCell>
                <mxCell id="43" value="" style="endArrow=none;html=1;fontColor=#FFFFFF;" parent="1" source="16" target="42" edge="1">
                    <mxGeometry width="50" height="50" relative="1" as="geometry">
                        <mxPoint x="735.4455445544556" y="2" as="sourcePoint"/>
                        <mxPoint x="950" y="240.42105263157907" as="targetPoint"/>
                    </mxGeometry>
                </mxCell>
                <mxCell id="44" value="" style="endArrow=none;html=1;fontColor=#FFFFFF;" parent="1" source="10" target="42" edge="1">
                    <mxGeometry width="50" height="50" relative="1" as="geometry">
                        <mxPoint x="1020" y="272.78947368421075" as="sourcePoint"/>
                        <mxPoint x="950" y="263.57894736842115" as="targetPoint"/>
                    </mxGeometry>
                </mxCell>
                <mxCell id="46" value="0,N" style="text;html=1;strokeColor=none;fillColor=none;align=center;verticalAlign=middle;whiteSpace=wrap;rounded=0;fontColor=#FFFFFF;" parent="1" vertex="1">
                    <mxGeometry x="590" y="237" width="40" height="20" as="geometry"/>
                </mxCell>
                <mxCell id="47" value="1,1" style="text;html=1;strokeColor=none;fillColor=none;align=center;verticalAlign=middle;whiteSpace=wrap;rounded=0;fontColor=#FFFFFF;" parent="1" vertex="1">
                    <mxGeometry x="370" y="237" width="40" height="20" as="geometry"/>
                </mxCell>
                <mxCell id="48" value="1,1" style="text;html=1;strokeColor=none;fillColor=none;align=center;verticalAlign=middle;whiteSpace=wrap;rounded=0;fontColor=#FFFFFF;" parent="1" vertex="1">
                    <mxGeometry x="230" y="137" width="40" height="20" as="geometry"/>
                </mxCell>
                <mxCell id="49" value="0,N" style="text;html=1;strokeColor=none;fillColor=none;align=center;verticalAlign=middle;whiteSpace=wrap;rounded=0;fontColor=#FFFFFF;" parent="1" vertex="1">
                    <mxGeometry x="230" width="40" height="20" as="geometry"/>
                </mxCell>
                <mxCell id="52" value="0,N" style="text;html=1;strokeColor=none;fillColor=none;align=center;verticalAlign=middle;whiteSpace=wrap;rounded=0;fontColor=#FFFFFF;" parent="1" vertex="1">
                    <mxGeometry x="650" y="-13" width="40" height="20" as="geometry"/>
                </mxCell>
                <mxCell id="53" value="1,N" style="text;html=1;strokeColor=none;fillColor=none;align=center;verticalAlign=middle;whiteSpace=wrap;rounded=0;fontColor=#FFFFFF;" parent="1" vertex="1">
                    <mxGeometry x="650" y="147" width="40" height="20" as="geometry"/>
                </mxCell>
                <mxCell id="54" value="1,1" style="text;html=1;strokeColor=none;fillColor=none;align=center;verticalAlign=middle;whiteSpace=wrap;rounded=0;fontColor=#FFFFFF;" parent="1" vertex="1">
                    <mxGeometry x="770" y="-13" width="40" height="20" as="geometry"/>
                </mxCell>
                <mxCell id="55" value="0,N" style="text;html=1;strokeColor=none;fillColor=none;align=center;verticalAlign=middle;whiteSpace=wrap;rounded=0;fontColor=#FFFFFF;" parent="1" vertex="1">
                    <mxGeometry x="770" y="147" width="40" height="20" as="geometry"/>
                </mxCell>
                <mxCell id="58" value="1,1" style="text;html=1;strokeColor=none;fillColor=none;align=center;verticalAlign=middle;whiteSpace=wrap;rounded=0;fontColor=#FFFFFF;" parent="1" vertex="1">
                    <mxGeometry x="740" y="360" width="40" height="20" as="geometry"/>
                </mxCell>
                <mxCell id="59" value="1,1" style="text;html=1;strokeColor=none;fillColor=none;align=center;verticalAlign=middle;whiteSpace=wrap;rounded=0;fontColor=#FFFFFF;" parent="1" vertex="1">
                    <mxGeometry x="740" y="440" width="40" height="20" as="geometry"/>
                </mxCell>
                <mxCell id="61" value="HOLDER" style="swimlane;fontStyle=0;childLayout=stackLayout;horizontal=1;startSize=26;horizontalStack=0;resizeParent=1;resizeParentMax=0;resizeLast=0;collapsible=1;marginBottom=0;fillColor=#66B2FF;swimlaneFillColor=#808080;fontColor=#FFFFFF;" vertex="1" parent="1">
                    <mxGeometry x="200" y="-100" width="140" height="52" as="geometry"/>
                </mxCell>
                <mxCell id="62" value="holder_name" style="text;strokeColor=none;fillColor=none;align=left;verticalAlign=top;spacingLeft=4;spacingRight=4;overflow=hidden;rotatable=0;points=[[0,0.5],[1,0.5]];portConstraint=eastwest;fontColor=#FFFFFF;" vertex="1" parent="61">
                    <mxGeometry y="26" width="140" height="26" as="geometry"/>
                </mxCell>
                <mxCell id="63" value="HAS RIGHTS ON" style="swimlane;fillColor=#60a917;strokeColor=#2D7600;rounded=1;swimlaneLine=0;swimlaneFillColor=#808080;fontColor=#FFFFFF;" vertex="1" parent="1">
                    <mxGeometry x="440" y="20" width="120" height="34" as="geometry"/>
                </mxCell>
                <mxCell id="64" value="HAS RIGHTS ON" style="swimlane;fillColor=#60a917;strokeColor=#2D7600;rounded=1;swimlaneLine=0;swimlaneFillColor=#808080;fontColor=#FFFFFF;" vertex="1" parent="1">
                    <mxGeometry x="440" y="-91" width="120" height="34" as="geometry"/>
                </mxCell>
                <mxCell id="65" value="CREATED BY" style="swimlane;fillColor=#60a917;strokeColor=#2D7600;rounded=1;swimlaneLine=0;swimlaneFillColor=#808080;fontColor=#FFFFFF;" vertex="1" parent="1">
                    <mxGeometry x="450" y="120" width="100" height="34" as="geometry"/>
                </mxCell>
                <mxCell id="66" value="" style="endArrow=none;html=1;fontColor=#FFFFFF;" edge="1" parent="1" source="10" target="65">
                    <mxGeometry width="50" height="50" relative="1" as="geometry">
                        <mxPoint x="620.0000000000002" y="282" as="sourcePoint"/>
                        <mxPoint x="540.0000000000002" y="282" as="targetPoint"/>
                    </mxGeometry>
                </mxCell>
                <mxCell id="67" value="" style="endArrow=none;html=1;fontColor=#FFFFFF;" edge="1" parent="1" source="10" target="63">
                    <mxGeometry width="50" height="50" relative="1" as="geometry">
                        <mxPoint x="648.5507246376812" y="256" as="sourcePoint"/>
                        <mxPoint x="520" y="215.68181818181824" as="targetPoint"/>
                    </mxGeometry>
                </mxCell>
                <mxCell id="68" value="" style="endArrow=none;html=1;fontColor=#FFFFFF;" edge="1" parent="1" source="63" target="61">
                    <mxGeometry width="50" height="50" relative="1" as="geometry">
                        <mxPoint x="435.9259259259261" y="-10" as="sourcePoint"/>
                        <mxPoint x="494.1290322580646" y="34" as="targetPoint"/>
                    </mxGeometry>
                </mxCell>
                <mxCell id="69" value="" style="endArrow=none;html=1;fontColor=#FFFFFF;" edge="1" parent="1" source="64" target="61">
                    <mxGeometry width="50" height="50" relative="1" as="geometry">
                        <mxPoint x="430.12345679012356" as="sourcePoint"/>
                        <mxPoint x="340.98765432098753" y="-38" as="targetPoint"/>
                    </mxGeometry>
                </mxCell>
                <mxCell id="70" value="" style="endArrow=none;html=1;fontColor=#FFFFFF;" edge="1" parent="1" source="16" target="64">
                    <mxGeometry width="50" height="50" relative="1" as="geometry">
                        <mxPoint x="410" y="-64" as="sourcePoint"/>
                        <mxPoint x="349.9999999999998" y="-64" as="targetPoint"/>
                    </mxGeometry>
                </mxCell>
                <mxCell id="72" value="" style="endArrow=none;html=1;fontColor=#FFFFFF;" edge="1" parent="1" source="65" target="61">
                    <mxGeometry width="50" height="50" relative="1" as="geometry">
                        <mxPoint x="430.12345679012356" y="50" as="sourcePoint"/>
                        <mxPoint x="340.98765432098753" y="12" as="targetPoint"/>
                    </mxGeometry>
                </mxCell>
                <mxCell id="73" value="1,1" style="text;html=1;strokeColor=none;fillColor=none;align=center;verticalAlign=middle;whiteSpace=wrap;rounded=0;fontColor=#FFFFFF;" vertex="1" parent="1">
                    <mxGeometry x="360" y="50" width="40" height="20" as="geometry"/>
                </mxCell>
                <mxCell id="74" value="1,N" style="text;html=1;strokeColor=none;fillColor=none;align=center;verticalAlign=middle;whiteSpace=wrap;rounded=0;fontColor=#FFFFFF;" vertex="1" parent="1">
                    <mxGeometry x="380" y="-40" width="40" height="20" as="geometry"/>
                </mxCell>
                <mxCell id="75" value="0,N" style="text;html=1;strokeColor=none;fillColor=none;align=center;verticalAlign=middle;whiteSpace=wrap;rounded=0;fontColor=#FFFFFF;" vertex="1" parent="1">
                    <mxGeometry x="530" y="60" width="40" height="20" as="geometry"/>
                </mxCell>
                <mxCell id="76" value="0,N" style="text;html=1;strokeColor=none;fillColor=none;align=center;verticalAlign=middle;whiteSpace=wrap;rounded=0;fontColor=#FFFFFF;" vertex="1" parent="1">
                    <mxGeometry x="530" y="180" width="40" height="20" as="geometry"/>
                </mxCell>
                <mxCell id="77" value="1,N" style="text;html=1;strokeColor=none;fillColor=none;align=center;verticalAlign=middle;whiteSpace=wrap;rounded=0;fontColor=#FFFFFF;" vertex="1" parent="1">
                    <mxGeometry x="360" y="-100" width="40" height="20" as="geometry"/>
                </mxCell>
                <mxCell id="78" value="0,N" style="text;html=1;strokeColor=none;fillColor=none;align=center;verticalAlign=middle;whiteSpace=wrap;rounded=0;fontColor=#FFFFFF;" vertex="1" parent="1">
                    <mxGeometry x="570" y="-100" width="40" height="20" as="geometry"/>
                </mxCell>
                <mxCell id="79" value="HAS RIGHTS ON" style="swimlane;fillColor=#60a917;strokeColor=#2D7600;rounded=1;swimlaneLine=0;swimlaneFillColor=#808080;fontColor=#FFFFFF;" vertex="1" parent="1">
                    <mxGeometry x="440" y="290" width="120" height="34" as="geometry"/>
                </mxCell>
                <mxCell id="80" value="" style="endArrow=none;html=1;fontColor=#FFFFFF;" edge="1" parent="1" source="79" target="2">
                    <mxGeometry width="50" height="50" relative="1" as="geometry">
                        <mxPoint x="440" y="262.95238095238085" as="sourcePoint"/>
                        <mxPoint x="349.9999999999998" y="273.66666666666674" as="targetPoint"/>
                    </mxGeometry>
                </mxCell>
                <mxCell id="81" value="" style="endArrow=none;html=1;fontColor=#FFFFFF;" edge="1" parent="1" source="10" target="79">
                    <mxGeometry width="50" height="50" relative="1" as="geometry">
                        <mxPoint x="440" y="308.66666666666674" as="sourcePoint"/>
                        <mxPoint x="349.9999999999998" y="293.66666666666674" as="targetPoint"/>
                    </mxGeometry>
                </mxCell>
                <mxCell id="82" value="0,N" style="text;html=1;strokeColor=none;fillColor=none;align=center;verticalAlign=middle;whiteSpace=wrap;rounded=0;fontColor=#FFFFFF;" vertex="1" parent="1">
                    <mxGeometry x="590" y="297" width="40" height="20" as="geometry"/>
                </mxCell>
                <mxCell id="83" value="1,N" style="text;html=1;strokeColor=none;fillColor=none;align=center;verticalAlign=middle;whiteSpace=wrap;rounded=0;fontColor=#FFFFFF;" vertex="1" parent="1">
                    <mxGeometry x="370" y="297" width="40" height="20" as="geometry"/>
                </mxCell>
            </root>
        </mxGraphModel>
    </diagram>
</mxfile>